<?xml version="1.0" standalone="no"?>
<!DOCTYPE svg PUBLIC "-//W3C//DTD SVG 20010904//EN"
 "http://www.w3.org/TR/2001/REC-SVG-20010904/DTD/svg10.dtd">
<svg version="1.0" xmlns="http://www.w3.org/2000/svg"
 width="128.000000pt" height="128.000000pt" viewBox="0 0 128.000000 128.000000"
 preserveAspectRatio="xMidYMid meet">
<metadata>
Created by potrace 1.15, written by Peter Selinger 2001-2017
</metadata>
<g transform="translate(0.000000,128.000000) scale(0.100000,-0.100000)"
fill="#000000" stroke="none">
<path d="M652 1079 c-74 -14 -123 -61 -158 -150 -10 -24 -24 -50 -31 -57 -7
-7 -13 -17 -13 -22 0 -5 -6 -7 -14 -4 -23 9 -36 -29 -36 -98 1 -74 12 -92 60
-96 53 -4 61 -23 54 -117 -4 -47 -13 -87 -21 -97 -13 -15 -12 -18 13 -34 22
-15 55 -19 187 -22 l160 -4 -17 23 c-9 13 -16 30 -16 39 0 8 -7 28 -15 43 -8
15 -11 26 -7 23 4 -2 14 3 22 12 13 14 12 15 -3 9 -19 -7 -67 31 -67 53 0 5
-4 10 -10 10 -5 0 -10 5 -10 10 0 6 7 10 15 10 21 0 19 16 -4 39 -11 11 -17
22 -14 25 10 10 43 7 43 -4 0 -5 5 -10 10 -10 6 0 10 11 10 25 0 17 -4 23 -14
19 -8 -3 -23 8 -36 25 l-21 31 23 0 c13 0 30 -4 38 -9 24 -16 31 -2 15 29 -19
37 -20 37 12 45 21 5 24 8 12 16 -12 7 -12 9 1 9 9 0 6 6 -9 16 -15 11 -21 24
-19 38 4 17 -1 22 -18 24 -13 1 -26 -3 -29 -9 -12 -18 -35 12 -34 45 1 29 1
29 8 6 5 -17 9 -21 15 -12 4 6 16 12 27 12 11 0 17 5 14 10 -3 6 -14 10 -25
10 -16 0 -17 3 -7 25 l12 24 33 -19 c39 -23 42 -12 6 19 -23 20 -87 53 -96 50
-2 -1 -22 -5 -46 -10z"/>
<path d="M874 824 c3 -26 6 -77 6 -113 l0 -66 31 0 c41 0 51 25 47 119 -3 60
-6 71 -20 71 -10 0 -27 8 -38 18 -30 25 -33 22 -26 -29z"/>
</g>
</svg>
