<?xml version="1.0"?>
<svg xmlns="http://www.w3.org/2000/svg" xmlns:xlink="http://www.w3.org/1999/xlink" version="1.1" id="Capa_1" x="0px" y="0px" viewBox="0 0 512 512" style="enable-background:new 0 0 512 512;" xml:space="preserve" width="512px" height="512px" class=""><g><polygon style="fill:#ED7161" points="498.184,195 512,90 443.972,90 455.814,0 350.555,0 338.713,90 256,90 226,142.5 256,195   324.897,195 308.844,317 256,317 226,369.5 256,422 295.029,422 283.187,512 388.446,512 400.288,422 468.315,422 482.131,317   414.103,317 430.156,195 " data-original="#203F49" class="" data-old_color="#203F49"/><polygon style="fill:#8697CB" points="187.103,317 203.156,195 256,195 256,90 216.972,90 228.814,0 123.555,0 111.713,90   43.684,90 29.869,195 97.897,195 81.844,317 13.816,317 0,422 68.029,422 56.187,512 161.446,512 173.288,422 256,422 256,317 " data-original="#2B5C74" class="active-path" data-old_color="#7AC673"/></g> </svg>
